<?xml version='1.0' encoding='ascii'?>
<svg id="fullscreenSVG" xmlns="http://www.w3.org/2000/svg" version="1.1" width="128" height="128" viewBox="0 0 128 128">
    <g id="ViewLayer_LineSet" xmlns:inkscape="http://www.inkscape.org/namespaces/inkscape" inkscape:groupmode="lineset" inkscape:label="ViewLayer_LineSet">
        <g id="fs_enter" xmlns:inkscape="http://www.inkscape.org/namespaces/inkscape" inkscape:groupmode="layer" id="strokes" inkscape:label="strokes">
            <path stroke-width="3.0" stroke-linecap="butt" stroke-opacity="1.0" stroke="rgb(0, 0, 0)" stroke-linejoin="miter" d=" M 37.957, 11.913 37.957, 3.336 27.957, 3.336 17.957, 3.336 7.957, 3.336 3.336, 3.336 3.336, 13.336 3.336, 23.336 3.336, 33.336 3.336, 37.957 11.913, 37.957 11.913, 27.957 11.913, 17.957 11.913, 11.913 21.913, 11.913 31.913, 11.913 37.957, 11.913 " />
            <path stroke-width="3.0" stroke-linecap="butt" stroke-opacity="1.0" stroke="rgb(0, 0, 0)" stroke-linejoin="miter" d=" M 11.913, 116.087 11.913, 106.087 11.913, 96.087 11.913, 90.043 3.336, 90.043 3.336, 100.043 3.336, 110.043 3.336, 120.043 3.336, 124.664 13.336, 124.664 23.336, 124.664 33.336, 124.664 37.957, 124.664 37.957, 116.087 27.957, 116.087 17.957, 116.087 11.913, 116.087 " />
            <path stroke-width="3.0" stroke-linecap="butt" stroke-opacity="1.0" stroke="rgb(0, 0, 0)" stroke-linejoin="miter" d=" M 116.087, 11.913 116.087, 21.913 116.087, 31.913 116.087, 37.957 124.664, 37.957 124.664, 27.957 124.664, 17.957 124.664, 7.957 124.664, 3.336 114.664, 3.336 104.664, 3.336 94.664, 3.336 90.043, 3.336 90.043, 11.913 100.043, 11.913 110.043, 11.913 116.087, 11.913 " />
            <path stroke-width="3.0" stroke-linecap="butt" stroke-opacity="1.0" stroke="rgb(0, 0, 0)" stroke-linejoin="miter" d=" M 90.043, 116.087 90.043, 124.664 100.043, 124.664 110.043, 124.664 120.043, 124.664 124.664, 124.664 124.664, 114.664 124.664, 104.664 124.664, 94.664 124.664, 90.043 116.087, 90.043 116.087, 100.043 116.087, 110.043 116.087, 116.087 106.087, 116.087 96.087, 116.087 90.043, 116.087 " />
        </g>
        <g id="fs_exit" xmlns:inkscape="http://www.inkscape.org/namespaces/inkscape" inkscape:groupmode="layer" id="strokes" inkscape:label="strokes">
            <path stroke-width="3.0" stroke-linecap="butt" stroke-opacity="1.0" stroke="rgb(0, 0, 0)" stroke-linejoin="miter" d=" M 3.354, 29.651 3.354, 38.228 13.354, 38.228 23.354, 38.228 33.354, 38.228 37.974, 38.228 37.974, 28.228 37.974, 18.228 37.974, 8.228 37.974, 3.608 29.397, 3.608 29.397, 13.608 29.397, 23.608 29.397, 29.651 19.397, 29.651 9.397, 29.651 3.354, 29.651 " />
            <path stroke-width="3.0" stroke-linecap="butt" stroke-opacity="1.0" stroke="rgb(0, 0, 0)" stroke-linejoin="miter" d=" M 29.143, 98.603 29.143, 108.603 29.143, 118.603 29.143, 124.646 37.720, 124.646 37.720, 114.646 37.720, 104.646 37.720, 94.646 37.720, 90.026 27.720, 90.026 17.720, 90.026 7.720, 90.026 3.100, 90.026 3.100, 98.603 13.100, 98.603 23.100, 98.603 29.143, 98.603 " />
            <path stroke-width="3.0" stroke-linecap="butt" stroke-opacity="1.0" stroke="rgb(0, 0, 0)" stroke-linejoin="miter" d=" M 98.095, 29.397 98.095, 19.397 98.095, 9.397 98.095, 3.354 89.518, 3.354 89.518, 13.354 89.518, 23.354 89.518, 33.354 89.518, 37.974 99.518, 37.974 109.518, 37.974 119.518, 37.974 124.139, 37.974 124.139, 29.397 114.139, 29.397 104.139, 29.397 98.095, 29.397 " />
            <path stroke-width="3.0" stroke-linecap="butt" stroke-opacity="1.0" stroke="rgb(0, 0, 0)" stroke-linejoin="miter" d=" M 124.139, 98.857 124.139, 90.280 114.139, 90.280 104.139, 90.280 94.139, 90.280 89.518, 90.280 89.518, 100.280 89.518, 110.280 89.518, 120.280 89.518, 124.900 98.095, 124.900 98.095, 114.900 98.095, 104.900 98.095, 98.857 108.095, 98.857 118.095, 98.857 124.139, 98.857 " />
        </g>
    </g>
    <rect class="Btn" x="0" y="0" onclick="toggleFullscreen()"/>
</svg>
